<svg width="60" height="60" viewBox="0 0 60 60" fill="none" xmlns="http://www.w3.org/2000/svg" xmlns:xlink="http://www.w3.org/1999/xlink">
<path d="M40,26.25C40,33.844 33.844,40 26.25,40L26.25,45C36.605,45 45,36.605 45,26.25L40,26.25ZM26.25,40C18.656,40 12.5,33.844 12.5,26.25L7.5,26.25C7.5,36.605 15.895,45 26.25,45L26.25,40ZM12.5,26.25C12.5,18.656 18.656,12.5 26.25,12.5L26.25,7.5C15.895,7.5 7.5,15.895 7.5,26.25L12.5,26.25ZM26.25,12.5C33.844,12.5 40,18.656 40,26.25L45,26.25C45,15.895 36.605,7.5 26.25,7.5L26.25,12.5Z" fill="#F4BC1C"/>
<path d="M49.117,50.884C49.605,51.372 50.397,51.372 50.885,50.884C51.373,50.396 51.373,49.604 50.885,49.116L49.117,50.884ZM50.885,49.116L38.385,36.616L36.617,38.384L49.117,50.884L50.885,49.116Z" fill="#F4BC1C"/>
</svg>
