<svg width="80" height="80" viewBox="0 0 80 80" fill="none" xmlns="http://www.w3.org/2000/svg" xmlns:xlink="http://www.w3.org/1999/xlink">
<path d="M17.14,40L39.997,17.143L54.282,17.143L37.14,34.286L65.711,34.286L65.711,45.715L37.14,45.715L54.282,62.857L39.997,62.857L17.14,40Z" clip-rule="evenodd" fill-rule="evenodd" transform="rotate(-360 41.425 40)" fill="#000000"/>
<path d="M40,0C29.391,0 19.217,4.214 11.716,11.716C4.214,19.217 0,29.391 0,40C0,50.609 4.214,60.783 11.716,68.284C19.217,75.786 29.391,80 40,80C50.609,80 60.783,75.786 68.284,68.284C75.786,60.783 80,50.609 80,40C80,29.391 75.786,19.217 68.284,11.716C60.783,4.214 50.609,0 40,0ZM40,5.714C49.093,5.714 57.814,9.327 64.244,15.756C70.673,22.186 74.286,30.907 74.286,40C74.286,49.093 70.673,57.814 64.244,64.244C57.814,70.673 49.093,74.286 40,74.286C30.907,74.286 22.186,70.673 15.756,64.244C9.327,57.814 5.714,49.093 5.714,40C5.714,30.907 9.327,22.186 15.756,15.756C22.186,9.327 30.907,5.714 40,5.714Z" transform="rotate(-360 40 40)" fill="#000000"/>
</svg>
