<svg width="40" height="40" viewBox="0 0 40 40" fill="none" xmlns="http://www.w3.org/2000/svg" xmlns:xlink="http://www.w3.org/1999/xlink">
<path d="M7.145,19.961L18.573,8.532L25.716,8.532L17.145,17.104L31.43,17.104L31.43,22.818L17.145,22.818L25.716,31.389L18.573,31.389L7.145,19.961Z" clip-rule="evenodd" fill-rule="evenodd" fill="#F4BC1C"/>
<path d="M20,-0.039C14.696,-0.039 9.609,2.068 5.858,5.819C2.107,9.57 0,14.657 0,19.961C0,25.265 2.107,30.352 5.858,34.103C9.609,37.854 14.696,39.961 20,39.961C25.304,39.961 30.391,37.854 34.142,34.103C37.893,30.352 40,25.265 40,19.961C40,14.657 37.893,9.57 34.142,5.819C30.391,2.068 25.304,-0.039 20,-0.039ZM20,2.818C24.547,2.818 28.907,4.624 32.122,7.839C35.337,11.054 37.143,15.414 37.143,19.961C37.143,24.508 35.337,28.868 32.122,32.083C28.907,35.298 24.547,37.104 20,37.104C15.453,37.104 11.093,35.298 7.878,32.083C4.663,28.868 2.857,24.508 2.857,19.961C2.857,15.414 4.663,11.054 7.878,7.839C11.093,4.624 15.453,2.818 20,2.818Z" fill="#F4BC1C"/>
</svg>
