<svg width="40" height="40" viewBox="0 0 40 40" fill="none" xmlns="http://www.w3.org/2000/svg" xmlns:xlink="http://www.w3.org/1999/xlink">
<path d="M8.57,20.001L19.998,8.573L27.141,8.573L18.57,17.144L32.856,17.144L32.856,22.858L18.57,22.858L27.141,31.43L19.998,31.43L8.57,20.001Z" clip-rule="evenodd" fill-rule="evenodd" transform="rotate(-360 20.713 20.001)" fill="#FFFFFF"/>
<path d="M20,0C14.696,0 9.609,2.107 5.858,5.858C2.107,9.609 0,14.696 0,20C0,25.304 2.107,30.391 5.858,34.142C9.609,37.893 14.696,40 20,40C25.304,40 30.391,37.893 34.142,34.142C37.893,30.391 40,25.304 40,20C40,14.696 37.893,9.609 34.142,5.858C30.391,2.107 25.304,0 20,0ZM20,2.857C24.547,2.857 28.907,4.663 32.122,7.878C35.337,11.093 37.143,15.453 37.143,20C37.143,24.547 35.337,28.907 32.122,32.122C28.907,35.337 24.547,37.143 20,37.143C15.453,37.143 11.093,35.337 7.878,32.122C4.663,28.907 2.857,24.547 2.857,20C2.857,15.453 4.663,11.093 7.878,7.878C11.093,4.663 15.453,2.857 20,2.857Z" transform="rotate(-360 20 20)" fill="#FFFFFF"/>
</svg>
