<svg width="40" height="40" viewBox="0 0 40 40" fill="none" xmlns="http://www.w3.org/2000/svg" xmlns:xlink="http://www.w3.org/1999/xlink">
<path d="M8.333,19.333L31.667,19.333L31.667,17.333L8.333,17.333L8.333,19.333ZM31.667,19.333C32.955,19.333 34,20.378 34,21.667L36,21.667C36,19.274 34.06,17.333 31.667,17.333L31.667,19.333ZM34,21.667L34,33.333L36,33.333L36,21.667L34,21.667ZM34,33.333C34,34.622 32.955,35.667 31.667,35.667L31.667,37.667C34.06,37.667 36,35.727 36,33.333L34,33.333ZM31.667,35.667L8.333,35.667L8.333,37.667L31.667,37.667L31.667,35.667ZM8.333,35.667C7.045,35.667 6,34.622 6,33.333L4,33.333C4,35.727 5.94,37.667 8.333,37.667L8.333,35.667ZM6,33.333L6,21.667L4,21.667L4,33.333L6,33.333ZM6,21.667C6,20.378 7.045,19.333 8.333,19.333L8.333,17.333C5.94,17.333 4,19.274 4,21.667L6,21.667Z" fill="#FFFFFF"/>
<path d="M10.668,18.333C10.668,18.886 11.116,19.333 11.668,19.333C12.22,19.333 12.668,18.886 12.668,18.333L10.668,18.333ZM11.668,11.667L10.668,11.667L11.668,11.667ZM20.001,3.333L20.001,2.333L20.001,3.333ZM27.335,18.333C27.335,18.886 27.782,19.333 28.335,19.333C28.887,19.333 29.335,18.886 29.335,18.333L27.335,18.333ZM12.668,18.333L12.668,11.667L10.668,11.667L10.668,18.333L12.668,18.333ZM12.668,11.667C12.668,9.722 13.441,7.857 14.816,6.481L13.402,5.067C11.651,6.817 10.668,9.191 10.668,11.667L12.668,11.667ZM14.816,6.481C16.191,5.106 18.056,4.333 20.001,4.333L20.001,2.333C17.526,2.333 15.152,3.317 13.402,5.067L14.816,6.481ZM20.001,4.333C21.946,4.333 23.811,5.106 25.187,6.481L26.601,5.067C24.851,3.317 22.477,2.333 20.001,2.333L20.001,4.333ZM25.187,6.481C26.562,7.857 27.335,9.722 27.335,11.667L29.335,11.667C29.335,9.191 28.351,6.817 26.601,5.067L25.187,6.481ZM27.335,11.667L27.335,18.333L29.335,18.333L29.335,11.667L27.335,11.667Z" fill="#FFFFFF"/>
</svg>
