<svg width="40" height="40" viewBox="0 0 40 40" fill="none" xmlns="http://www.w3.org/2000/svg" xmlns:xlink="http://www.w3.org/1999/xlink">
<path d="M32.335,35C32.335,35.552 32.782,36 33.335,36C33.887,36 34.335,35.552 34.335,35L32.335,35ZM26.668,25L26.668,24L26.668,25ZM13.335,25L13.335,24L13.335,25ZM6.668,31.667L5.668,31.667L6.668,31.667ZM5.668,35C5.668,35.552 6.116,36 6.668,36C7.22,36 7.668,35.552 7.668,35L5.668,35ZM34.335,35L34.335,31.667L32.335,31.667L32.335,35L34.335,35ZM34.335,31.667C34.335,29.633 33.527,27.683 32.089,26.246L30.675,27.66C31.738,28.722 32.335,30.164 32.335,31.667L34.335,31.667ZM32.089,26.246C30.651,24.808 28.701,24 26.668,24L26.668,26C28.171,26 29.612,26.597 30.675,27.66L32.089,26.246ZM26.668,24L13.335,24L13.335,26L26.668,26L26.668,24ZM13.335,24C11.301,24 9.351,24.808 7.913,26.246L9.328,27.66C10.39,26.597 11.832,26 13.335,26L13.335,24ZM7.913,26.246C6.476,27.683 5.668,29.633 5.668,31.667L7.668,31.667C7.668,30.164 8.265,28.722 9.328,27.66L7.913,26.246ZM5.668,31.667L5.668,35L7.668,35L7.668,31.667L5.668,31.667Z" fill="#FFFFFF"/>
<path d="M25.665,11.667C25.665,14.796 23.128,17.333 19.999,17.333L19.999,19.333C24.233,19.333 27.665,15.901 27.665,11.667L25.665,11.667ZM19.999,17.333C16.869,17.333 14.332,14.796 14.332,11.667L12.332,11.667C12.332,15.901 15.765,19.333 19.999,19.333L19.999,17.333ZM14.332,11.667C14.332,8.537 16.869,6 19.999,6L19.999,4C15.765,4 12.332,7.432 12.332,11.667L14.332,11.667ZM19.999,6C23.128,6 25.665,8.537 25.665,11.667L27.665,11.667C27.665,7.432 24.233,4 19.999,4L19.999,6Z" fill="#FFFFFF"/>
</svg>
