<svg width="200" height="150" viewBox="0 0 200 150" fill="none" xmlns="http://www.w3.org/2000/svg" xmlns:xlink="http://www.w3.org/1999/xlink">
<path d="M10.323,87.839C8.025,85.452 4.227,85.379 1.839,87.677C-0.548,89.975 -0.621,93.773 1.677,96.161L10.323,87.839ZM55.706,143.644L51.383,147.804C52.501,148.966 54.04,149.629 55.652,149.643C57.265,149.658 58.815,149.023 59.954,147.881L55.706,143.644ZM197.248,10.237C199.588,7.891 199.583,4.092 197.237,1.752C194.891,-0.588 191.092,-0.583 188.752,1.763L197.248,10.237ZM1.677,96.161L51.383,147.804L60.029,139.483L10.323,87.839L1.677,96.161ZM59.954,147.881L197.248,10.237L188.752,1.763L51.458,139.406L59.954,147.881Z" fill="#000000"/>
</svg>
