<svg width="50" height="50" viewBox="0 0 50 50" fill="none" xmlns="http://www.w3.org/2000/svg" xmlns:xlink="http://www.w3.org/1999/xlink">
<path d="M49,24C49,37.807 37.807,49 24,49C10.193,49 -1,37.807 -1,24C-1,10.193 10.193,-1 24,-1C37.807,-1 49,10.193 49,24ZM27.158,23.342C27.158,25.526 25.395,27.289 23.211,27.289C21.026,27.289 19.263,25.526 19.263,23.342L19.263,15.447C19.263,13.263 21.026,11.5 23.211,11.5C25.395,11.5 27.158,13.263 27.158,15.447L27.158,23.342ZM23.211,14.132C22.487,14.132 21.895,14.724 21.895,15.447L21.895,23.342C21.895,24.066 22.487,24.658 23.211,24.658C23.947,24.658 24.526,24.079 24.526,23.342L24.526,15.447C24.526,14.724 23.934,14.132 23.211,14.132ZM32.421,23.342L30.184,23.342C30.184,27.29 26.842,30.052 23.211,30.052C19.579,30.052 16.237,27.29 16.237,23.342L14,23.342C14,27.829 17.579,31.54 21.895,32.184L21.895,36.5L24.526,36.5L24.526,32.184C28.842,31.54 32.421,27.829 32.421,23.342Z" clip-rule="evenodd" fill-rule="evenodd" fill="#FFFFFF"/>
</svg>
