<svg width="70" height="70" viewBox="0 0 70 70" fill="none" xmlns="http://www.w3.org/2000/svg" xmlns:xlink="http://www.w3.org/1999/xlink">
<path d="M31.354,7.146C33.366,5.425 36.662,5.425 38.704,7.146L43.312,11.112C44.187,11.871 45.821,12.483 46.987,12.483L51.946,12.483C55.037,12.483 57.575,15.021 57.575,18.112L57.575,23.071C57.575,24.208 58.187,25.871 58.946,26.746L62.912,31.354C64.633,33.366 64.633,36.662 62.912,38.704L58.946,43.312C58.187,44.187 57.575,45.82 57.575,46.987L57.575,51.945C57.575,55.037 55.037,57.575 51.946,57.575L46.987,57.575C45.85,57.575 44.187,58.187 43.312,58.945L38.704,62.912C36.691,64.633 33.396,64.633 31.354,62.912L26.746,58.945C25.871,58.187 24.237,57.575 23.071,57.575L18.025,57.575C14.933,57.575 12.396,55.037 12.396,51.945L12.396,46.958C12.396,45.82 11.783,44.187 11.054,43.312L7.116,38.675C5.425,36.662 5.425,33.395 7.116,31.383L11.054,26.746C11.783,25.871 12.396,24.237 12.396,23.1L12.396,18.083C12.396,14.991 14.933,12.454 18.025,12.454L23.071,12.454C24.208,12.454 25.871,11.841 26.746,11.083L31.354,7.146Z" fill="#F4BC1C"/>
<path d="M25.859,33.589C25.079,32.806 23.813,32.803 23.03,33.583C22.247,34.362 22.245,35.628 23.024,36.411L25.859,33.589ZM31.471,42.058L30.053,43.469C30.428,43.846 30.938,44.058 31.47,44.058C32.001,44.058 32.511,43.847 32.886,43.471L31.471,42.058ZM46.974,29.354C47.754,28.572 47.753,27.306 46.971,26.526C46.189,25.745 44.923,25.747 44.142,26.529L46.974,29.354ZM23.024,36.411L30.053,43.469L32.888,40.647L25.859,33.589L23.024,36.411ZM32.886,43.471L46.974,29.354L44.142,26.529L30.055,40.645L32.886,43.471Z" fill="#000000"/>
</svg>
