<svg width="70" height="70" viewBox="0 0 70 70" fill="none" xmlns="http://www.w3.org/2000/svg" xmlns:xlink="http://www.w3.org/1999/xlink">
<path d="M25.859,33.589C25.079,32.806 23.813,32.803 23.03,33.583C22.247,34.362 22.245,35.628 23.024,36.411L25.859,33.589ZM31.471,42.058L30.053,43.469C30.428,43.846 30.938,44.058 31.47,44.058C32.001,44.058 32.511,43.847 32.886,43.471L31.471,42.058ZM46.974,29.354C47.754,28.572 47.753,27.306 46.971,26.526C46.189,25.745 44.923,25.747 44.142,26.529L46.974,29.354ZM23.024,36.411L30.053,43.469L32.888,40.647L25.859,33.589L23.024,36.411ZM32.886,43.471L46.974,29.354L44.142,26.529L30.055,40.645L32.886,43.471Z" fill="#F4BC1C"/>
<path d="M31.354,7.146L32.653,8.667L32.654,8.666L31.354,7.146ZM38.704,7.146L40.009,5.63L39.993,5.617L38.704,7.146ZM43.312,11.113L44.622,9.601L44.617,9.597L43.312,11.113ZM58.946,26.746L60.461,25.441L60.457,25.436L58.946,26.746ZM62.912,31.354L64.432,30.054L64.428,30.049L62.912,31.354ZM62.912,38.704L64.428,40.009L64.441,39.993L62.912,38.704ZM58.946,43.313L60.457,44.622L60.461,44.617L58.946,43.313ZM43.312,58.946L44.617,60.462L44.622,60.457L43.312,58.946ZM38.704,62.913L40.004,64.433L40.009,64.428L38.704,62.913ZM31.354,62.913L30.049,64.428L30.065,64.442L31.354,62.913ZM26.746,58.946L25.436,60.457L25.441,60.462L26.746,58.946ZM11.054,43.313L12.59,42.032L12.578,42.018L11.054,43.313ZM7.116,38.675L5.585,39.962L5.592,39.97L7.116,38.675ZM7.116,31.383L5.592,30.089L5.585,30.096L7.116,31.383ZM11.054,26.746L12.579,28.041L12.59,28.026L11.054,26.746ZM26.746,11.084L25.446,9.563L25.436,9.572L26.746,11.084ZM32.654,8.666C33.912,7.59 36.113,7.578 37.415,8.675L39.993,5.617C37.212,3.273 32.82,3.261 30.054,5.626L32.654,8.666ZM37.399,8.662L42.007,12.629L44.617,9.597L40.009,5.63L37.399,8.662ZM42.002,12.624C42.672,13.204 43.528,13.653 44.34,13.956C45.152,14.259 46.096,14.484 46.987,14.484L46.987,10.484C46.712,10.484 46.255,10.401 45.74,10.209C45.225,10.017 44.828,9.78 44.622,9.601L42.002,12.624ZM46.987,14.484L51.946,14.484L51.946,10.484L46.987,10.484L46.987,14.484ZM51.946,14.484C53.933,14.484 55.575,16.126 55.575,18.113L59.575,18.113C59.575,13.917 56.142,10.484 51.946,10.484L51.946,14.484ZM55.575,18.113L55.575,23.071L59.575,23.071L59.575,18.113L55.575,18.113ZM55.575,23.071C55.575,23.951 55.8,24.894 56.101,25.704C56.402,26.513 56.85,27.381 57.434,28.056L60.457,25.436C60.283,25.236 60.045,24.835 59.85,24.31C59.655,23.786 59.575,23.329 59.575,23.071L55.575,23.071ZM57.43,28.051L61.396,32.659L64.428,30.049L60.461,25.441L57.43,28.051ZM61.392,32.654C62.468,33.913 62.481,36.113 61.383,37.415L64.441,39.993C66.785,37.212 66.798,32.821 64.432,30.054L61.392,32.654ZM61.396,37.399L57.43,42.008L60.461,44.617L64.428,40.009L61.396,37.399ZM57.434,42.003C56.854,42.672 56.406,43.529 56.102,44.341C55.799,45.153 55.575,46.096 55.575,46.988L59.575,46.988C59.575,46.712 59.657,46.256 59.849,45.741C60.042,45.225 60.279,44.828 60.457,44.622L57.434,42.003ZM55.575,46.988L55.575,51.946L59.575,51.946L59.575,46.988L55.575,46.988ZM55.575,51.946C55.575,53.933 53.933,55.575 51.946,55.575L51.946,59.575C56.142,59.575 59.575,56.142 59.575,51.946L55.575,51.946ZM51.946,55.575L46.987,55.575L46.987,59.575L51.946,59.575L51.946,55.575ZM46.987,55.575C46.108,55.575 45.164,55.801 44.355,56.101C43.545,56.402 42.677,56.85 42.002,57.435L44.622,60.457C44.823,60.283 45.223,60.046 45.748,59.851C46.273,59.656 46.729,59.575 46.987,59.575L46.987,55.575ZM42.007,57.43L37.399,61.397L40.009,64.428L44.617,60.462L42.007,57.43ZM37.404,61.392C36.145,62.469 33.945,62.481 32.643,61.383L30.065,64.442C32.846,66.786 37.237,66.798 40.004,64.433L37.404,61.392ZM32.659,61.397L28.05,57.43L25.441,60.462L30.049,64.428L32.659,61.397ZM28.055,57.435C27.386,56.854 26.529,56.406 25.717,56.103C24.905,55.799 23.962,55.575 23.071,55.575L23.071,59.575C23.346,59.575 23.802,59.657 24.317,59.85C24.833,60.042 25.23,60.279 25.436,60.457L28.055,57.435ZM23.071,55.575L18.025,55.575L18.025,59.575L23.071,59.575L23.071,55.575ZM18.025,55.575C16.038,55.575 14.396,53.933 14.396,51.946L10.396,51.946C10.396,56.142 13.828,59.575 18.025,59.575L18.025,55.575ZM14.396,51.946L14.396,46.958L10.396,46.958L10.396,51.946L14.396,51.946ZM14.396,46.958C14.396,46.078 14.169,45.141 13.874,44.343C13.577,43.541 13.142,42.695 12.59,42.032L9.517,44.593C9.694,44.805 9.931,45.213 10.123,45.731C10.315,46.252 10.396,46.702 10.396,46.958L14.396,46.958ZM12.578,42.018L8.641,37.381L5.592,39.97L9.529,44.607L12.578,42.018ZM8.647,37.388C7.581,36.12 7.581,33.939 8.647,32.67L5.585,30.096C3.268,32.853 3.268,37.205 5.585,39.962L8.647,37.388ZM8.641,32.678L12.578,28.041L9.529,25.452L5.592,30.089L8.641,32.678ZM12.59,28.026C13.142,27.364 13.577,26.517 13.874,25.716C14.169,24.917 14.396,23.981 14.396,23.1L10.396,23.1C10.396,23.357 10.315,23.806 10.123,24.327C9.931,24.846 9.694,25.253 9.517,25.466L12.59,28.026ZM14.396,23.1L14.396,18.084L10.396,18.084L10.396,23.1L14.396,23.1ZM14.396,18.084C14.396,16.096 16.038,14.454 18.025,14.454L18.025,10.454C13.828,10.454 10.396,13.887 10.396,18.084L14.396,18.084ZM18.025,14.454L23.071,14.454L23.071,10.454L18.025,10.454L18.025,14.454ZM23.071,14.454C23.95,14.454 24.894,14.229 25.703,13.928C26.513,13.627 27.381,13.18 28.055,12.595L25.436,9.572C25.235,9.746 24.834,9.984 24.31,10.179C23.785,10.374 23.329,10.454 23.071,10.454L23.071,14.454ZM28.045,12.604L32.653,8.667L30.055,5.626L25.446,9.563L28.045,12.604Z" fill="#F4BC1C"/>
</svg>
